<svg xmlns="http://www.w3.org/2000/svg" xmlns:xlink="http://www.w3.org/1999/xlink" width="181" height="28" viewBox="0 0 181 28"><defs><path id="v52ra" d="M138.23 15.4h15.21c2.34 0 4.23 1.9 4.23 4.23v18.6c0 2.33-1.9 4.23-4.23 4.23h-15.21a4.23 4.23 0 0 1-4.23-4.23v-18.6c0-2.33 1.9-4.22 4.23-4.22zm-2.54 15.22v6.76a3.38 3.38 0 0 0 3.38 3.39h13.53a3.38 3.38 0 0 0 3.38-3.39v-6.76c0-.29-.04-.57-.1-.84h.1V26.4h-1.7v1.3a3.3 3.3 0 0 0-.03-.03l.03.84c0 4.9-3.78 8.87-8.45 8.87-4.66 0-8.45-3.97-8.45-8.87 0-.28.02-.56.04-.84l-.04.02v-1.3h-1.69v3.39h.1c-.06.27-.1.55-.1.84zm4.23-1.7a5.91 5.91 0 1 0 11.83.01 5.91 5.91 0 0 0-11.83 0zm1.69-7.6h1.69V17.1h-1.7zm3.38 0h1.69V17.1h-1.7zm3.38 0h1.69V17.1h-1.69zm-.85 4.23a2.54 2.54 0 0 1 1.61 4.5 2.97 2.97 0 0 0-3.57-3.57 2.53 2.53 0 0 1 1.96-.93z"/></defs><g><g transform="translate(-134 -15)"><g fill="#fff" font-family="'SegoeWPN','SegoeWPN'" font-size="27.3" font-style="none" font-weight="400" style="text-transform:uppercase"><text dominant-baseline="text-before-edge" font-family="Helvetica, Arial, sans-serif" transform="translate(167 18)"><tspan style="font-kerning:normal">Leo images</tspan></text></g></g><g transform="translate(-134 -15)"><use fill="#fff" xlink:href="#v52ra"/></g></g></svg>